<svg width="1086" height="340" viewBox="0 0 1086 340" fill="none" xmlns="http://www.w3.org/2000/svg">
<rect x="43" y="11" width="1007" height="317" fill="url(#paint0_linear)"/>
<g filter="url(#filter0_f)">
<circle cx="543" cy="170" r="80" fill="url(#paint1_radial)"/>
</g>
<circle cx="543" cy="170" r="70" fill="url(#paint2_radial)" stroke="url(#paint3_linear)" stroke-width="2"/>
<circle cx="543" cy="170" r="70" fill="url(#paint4_radial)" stroke="url(#paint5_linear)"/>
<g filter="url(#filter1_i)">
<path d="M565 185.73V185.73C559.54 185.73 554.217 187.436 549.775 190.61L536.632 200L541.468 196.561C546.069 193.29 547.739 187.238 545.468 182.07V182.07C545.174 181.401 544.938 180.708 544.799 179.992C544.268 177.256 543.71 172.878 543 168M541.562 151.428C541.541 151.089 541.521 150.75 541.502 150.409C541.276 146.366 543.651 142.666 547.342 141V141L541.987 142.921L536.632 144.842M541.562 151.428L545.208 148.865C547.883 146.984 551.168 146.183 554.408 146.622L556.855 146.953C559.761 147.347 562.26 149.209 563.468 151.881V151.881C564.445 154.042 564.476 156.512 563.554 158.696L563.246 159.428C562.148 162.03 560.032 164.069 557.391 165.07L555.71 165.708C554.766 166.066 553.786 166.325 552.788 166.48L543 168M541.562 151.428C541.936 157.482 542.285 163.083 543 168M541.562 151.428L536.632 152.526L533.613 153.479C529.845 154.67 525.479 155.463 523.026 158.563V158.563C522.727 158.941 522.382 160.009 522.055 161.279C521.247 164.416 522.107 167.716 524.057 170.303L524.429 170.798C525.033 171.599 525.777 172.284 526.625 172.82V172.82C529.517 174.648 533.234 174.514 535.988 172.484L536.632 172.009L543 168" stroke="url(#paint6_radial)" stroke-width="9"/>
</g>
<defs>
<filter id="filter0_f" x="428" y="55" width="230" height="230" filterUnits="userSpaceOnUse" color-interpolation-filters="sRGB">
<feFlood flood-opacity="0" result="BackgroundImageFix"/>
<feBlend mode="normal" in="SourceGraphic" in2="BackgroundImageFix" result="shape"/>
<feGaussianBlur stdDeviation="17.5" result="effect1_foregroundBlur"/>
</filter>
<filter id="filter1_i" x="517.251" y="136.764" width="51.4729" height="68.9032" filterUnits="userSpaceOnUse" color-interpolation-filters="sRGB">
<feFlood flood-opacity="0" result="BackgroundImageFix"/>
<feBlend mode="normal" in="SourceGraphic" in2="BackgroundImageFix" result="shape"/>
<feColorMatrix in="SourceAlpha" type="matrix" values="0 0 0 0 0 0 0 0 0 0 0 0 0 0 0 0 0 0 127 0" result="hardAlpha"/>
<feOffset dy="2"/>
<feGaussianBlur stdDeviation="1"/>
<feComposite in2="hardAlpha" operator="arithmetic" k2="-1" k3="1"/>
<feColorMatrix type="matrix" values="0 0 0 0 0 0 0 0 0 0 0 0 0 0 0 0 0 0 0.18 0"/>
<feBlend mode="normal" in2="shape" result="effect1_innerShadow"/>
</filter>
<linearGradient id="paint0_linear" x1="607.927" y1="-247.5" x2="40.4408" y2="323.959" gradientUnits="userSpaceOnUse">
<stop stop-color="#8F8F8F"/>
<stop offset="1" stop-color="#414141"/>
</linearGradient>
<radialGradient id="paint1_radial" cx="0" cy="0" r="1" gradientUnits="userSpaceOnUse" gradientTransform="translate(594 114.5) rotate(131.711) scale(154.05)">
<stop stop-color="#ADADAD"/>
<stop offset="1" stop-color="#282828"/>
</radialGradient>
<radialGradient id="paint2_radial" cx="0" cy="0" r="1" gradientUnits="userSpaceOnUse" gradientTransform="translate(579 130) rotate(126.923) scale(108.2 118.263)">
<stop stop-color="#8F8F8F"/>
<stop offset="0.925465" stop-color="#414141"/>
</radialGradient>
<linearGradient id="paint3_linear" x1="602" y1="113.5" x2="495.5" y2="212" gradientUnits="userSpaceOnUse">
<stop stop-color="#C1C1C1"/>
<stop offset="1" stop-color="#252525"/>
</linearGradient>
<radialGradient id="paint4_radial" cx="0" cy="0" r="1" gradientUnits="userSpaceOnUse" gradientTransform="translate(579 130) rotate(126.923) scale(108.2 118.263)">
<stop stop-color="#8F8F8F"/>
<stop offset="0.925465" stop-color="#414141"/>
</radialGradient>
<linearGradient id="paint5_linear" x1="488" y1="228.5" x2="598.5" y2="112" gradientUnits="userSpaceOnUse">
<stop stop-color="#C1C1C1"/>
<stop offset="1" stop-color="#252525"/>
</linearGradient>
<radialGradient id="paint6_radial" cx="0" cy="0" r="1" gradientUnits="userSpaceOnUse" gradientTransform="translate(558 151.5) rotate(131.941) scale(46.3816 34.5896)">
<stop stop-color="#63FFD0"/>
<stop offset="1" stop-color="#00A3FF"/>
</radialGradient>
</defs>
</svg>
